<svg width="100" height="100" viewBox="0 0 100 100" fill="none" xmlns="http://www.w3.org/2000/svg">
<path d="M8.58346 61.1667C8.87057 62.2188 9.5587 63.1163 10.5001 63.6667L18.4585 68.2917V77.4584C18.4585 78.5635 18.8974 79.6233 19.6788 80.4047C20.4602 81.1861 21.5201 81.6251 22.6251 81.6251H31.7918L36.4168 89.5834C36.7804 90.2131 37.3024 90.7368 37.931 91.1023C38.5597 91.4677 39.273 91.6623 40.0001 91.6667C40.748 91.6665 41.482 91.465 42.1251 91.0834L50.0418 86.5001L58.0001 91.0834C58.4732 91.3606 58.9963 91.5417 59.5395 91.6164C60.0828 91.691 60.6353 91.6577 61.1657 91.5183C61.696 91.379 62.1936 91.1364 62.6299 90.8043C63.0663 90.4723 63.4328 90.0574 63.7085 89.5834L68.2918 81.6251H77.4585C78.5635 81.6251 79.6233 81.1861 80.4047 80.4047C81.1861 79.6233 81.6251 78.5635 81.6251 77.4584V68.2917L89.5835 63.6667C90.5365 63.1171 91.2335 62.2128 91.5223 61.1512C91.8111 60.0896 91.6683 58.9568 91.1251 58.0001L86.5001 50.0001L91.1251 42.0417C91.6683 41.085 91.8111 39.9522 91.5223 38.8906C91.2335 37.829 90.5365 36.9247 89.5835 36.3751L81.6251 31.7917V22.6251C81.6251 21.52 81.1861 20.4602 80.4047 19.6788C79.6233 18.8974 78.5635 18.4584 77.4585 18.4584H68.2918L63.7085 10.5001C63.1483 9.54995 62.2343 8.8607 61.1668 8.58339C60.6375 8.44116 60.0853 8.40475 59.5419 8.47625C58.9986 8.54775 58.4746 8.72575 58.0001 9.00006L50.0001 13.5834L42.0835 9.00006C41.1317 8.45334 40.0028 8.30421 38.9417 8.58507C37.8807 8.86593 36.9734 9.55409 36.4168 10.5001L31.7918 18.4584H22.6251C21.5201 18.4584 20.4602 18.8974 19.6788 19.6788C18.8974 20.4602 18.4585 21.52 18.4585 22.6251V31.7917L10.5418 36.3751C10.0643 36.6473 9.64546 37.0112 9.30928 37.446C8.9731 37.8808 8.72625 38.3778 8.58295 38.9084C8.43965 39.439 8.40274 39.9927 8.47434 40.5376C8.54594 41.0825 8.72463 41.6078 9.00012 42.0834L13.5835 50.0001L9.00012 57.9584C8.72027 58.4384 8.53924 58.9695 8.46768 59.5205C8.39613 60.0715 8.43549 60.6312 8.58346 61.1667ZM22.0001 47.9584L18.2918 41.6667L24.7501 37.9167C25.3721 37.548 25.8874 37.0236 26.2454 36.3954C26.6034 35.7671 26.7917 35.0565 26.7918 34.3334V26.7917H34.2085C34.9427 26.7946 35.6646 26.6035 36.3012 26.2376C36.9378 25.8718 37.4664 25.3442 37.8335 24.7084L41.6668 18.2917L48.0835 22.0001C48.7169 22.3658 49.4354 22.5583 50.1668 22.5583C50.8982 22.5583 51.6167 22.3658 52.2501 22.0001L58.7085 18.2917L62.5001 24.7084C62.8672 25.3442 63.3958 25.8718 64.0324 26.2376C64.669 26.6035 65.3909 26.7946 66.1251 26.7917H73.5001V34.2084C73.5045 34.9355 73.6991 35.6489 74.0646 36.2775C74.4301 36.9061 74.9537 37.4282 75.5835 37.7917L82.0001 41.5417L78.2918 47.9584C77.9261 48.5918 77.7336 49.3103 77.7336 50.0417C77.7336 50.7731 77.9261 51.4917 78.2918 52.1251L82.0001 58.5417L75.5835 62.2917C74.9537 62.6553 74.4301 63.1773 74.0646 63.806C73.6991 64.4346 73.5045 65.1479 73.5001 65.8751V73.2917H65.8751C65.148 73.2961 64.4346 73.4907 63.806 73.8562C63.1774 74.2217 62.6553 74.7453 62.2918 75.3751L58.5835 81.7917L52.1251 78.0834C51.4917 77.7177 50.7732 77.5252 50.0418 77.5252C49.3104 77.5252 48.5919 77.7177 47.9585 78.0834L41.6668 81.7917L37.9585 75.3751C37.5914 74.7392 37.0628 74.2117 36.4262 73.8458C35.7896 73.48 35.0677 73.2888 34.3335 73.2917H26.7918V65.8751C26.7567 65.1876 26.5519 64.5196 26.1956 63.9307C25.8394 63.3417 25.3427 62.8502 24.7501 62.5001L18.2918 58.7501L22.0001 52.3334C22.4057 51.6759 22.6205 50.9185 22.6205 50.1459C22.6205 49.3733 22.4057 48.6159 22.0001 47.9584Z" fill="#FCD61B"/>
</svg>
